<?xml version="1.0" encoding="UTF-8"?>
<svg id="Layer_1" xmlns="http://www.w3.org/2000/svg" version="1.1" viewBox="0 0 943.17 649.65">
  <!-- Generator: Adobe Illustrator 29.3.0, SVG Export Plug-In . SVG Version: 2.1.0 Build 146)  -->
  <defs>
    <style>
      .st0 {
        fill: none;
      }

      .st1 {
        fill: #fff;
      }
    </style>
  </defs>
  <rect class="st0" x=".23" y=".63" width="944.72" height="649.3"/>
  <path class="st1" d="M319.38,214.49c-5.35,0-9.49-3.16-9.49-9,0-1.95.98-5.36,2.19-7.79-2.44-.73-5.83-1.21-9.25-1.21-32.61,0-60.84,31.39-60.84,63.27,0,23.36,14.36,29.44,26.05,29.44,13.62,0,23.36-5.35,32.36-13.38h4.87c-6.82,9.49-21.42,21.41-42.59,21.41-28.96,0-40.15-17.52-40.15-37.72,0-37.47,39.91-69.11,81.76-69.11,16.31,0,25.55,5.84,25.55,14.12,0,5.35-3.89,9.97-10.46,9.97Z"/>
  <path class="st1" d="M390.93,271.68c-2.92,4.63-9.49,12.66-14.12,12.66-1.21,0-1.94-.74-1.94-2.19,0-1.95.73-4.38.73-4.38l19.71-55.98h-16.55l-2.19,6.09c-2.92-4.62-6.81-6.33-11.68-6.33-19.22,0-50.62,27.5-50.62,55.73,0,12.16,7.3,19.22,17.28,19.22s18.98-8.27,25.55-18.25h.49c-.24,1.71-.73,4.38-.73,6.81,0,6.09,3.16,10.71,9.25,10.71,13.63,0,25.55-18,29.44-24.09h-4.62ZM371.46,241.75s-5.35,12.9-10.71,23.12c-4.38,8.27-14.11,20.68-21.17,20.68-5.11,0-7.78-3.65-7.78-9.73,0-20.69,22.14-49.4,34.55-49.4,4.14,0,6.57,3.65,6.57,8.27,0,2.19-.49,4.38-1.46,7.06Z"/>
  <path class="st1" d="M474.16,229.82c0,5.36-4.14,11.68-10.46,11.68-4.14,0-7.07-3.16-7.07-8.51v-1.7c-4.13,2.18-14.84,11.67-27.74,43.07l-7.54,19.95h-16.31s13.63-38.69,17.77-52.32c.73-2.43,1.22-5.11,1.22-6.33,0-.97-.49-1.94-1.71-1.94-1.7,0-5.83,1.94-13.38,12.65h-4.38c9-14.84,20.2-24.82,27.98-24.82,5.12,0,7.31,2.92,7.31,7.54,0,3.17-1.46,9.25-4.87,21.42,14.6-26.53,23.85-30.18,29.69-29.93,6.08,0,9.49,4.14,9.49,9.24Z"/>
  <path class="st1" d="M535,241.5c-4.14,0-7.06-3.16-7.06-8.51v-1.7c-4.14,2.18-14.85,11.67-27.75,43.07l-7.54,19.95h-16.3s13.63-38.69,17.77-52.32c.72-2.43,1.21-5.11,1.21-6.33,0-.97-.49-1.94-1.7-1.94-1.71,0-5.85,1.94-13.39,12.65h-4.38c9-14.84,20.2-24.82,27.99-24.82,5.11,0,7.3,2.92,7.3,7.54,0,3.17-1.46,9.25-4.87,21.42,14.6-26.53,23.85-30.18,29.69-29.93,6.09,0,9.49,4.14,9.49,9.24,0,5.36-4.14,11.68-10.46,11.68Z"/>
  <path class="st1" d="M575.64,271.68h4.38c-7.3,12.17-20.2,24.82-31.88,24.82-5.6,0-9.25-3.4-9.25-8.76,0-3.16.98-8.27,3.89-16.06l18.74-49.89h16.31l-19.47,54.76c-.24.73-1.22,3.65-1.22,6.08,0,1.71.73,2.43,1.95,2.43,4.38,0,11.92-7.05,16.55-13.38Z"/>
  <path class="st1" d="M585.13,200.62c0,7.06-5.84,13.87-12.66,13.87-3.89,0-6.81-2.43-6.81-7.54,0-7.06,5.84-13.87,12.66-13.87,3.89,0,6.81,2.43,6.81,7.54Z"/>
  <path class="st1" d="M619.69,287.99c-9.25,0-13.39-6.82-13.39-14.36,0-2.68.25-6.57.73-8.76,35.53-1.22,51.35-13.88,51.35-27.5,0-9.98-8.27-16.79-21.17-16.79-25.52,0-43.98,21.19-48.23,41.96-3.12,15.24,5.72,31.13,21.07,33.61,17.3,2.79,35.27-11.3,42.73-22.77h-4.13c-6.09,6.09-16.31,14.61-28.96,14.61ZM635.26,225.2c5.6,0,7.79,4.14,7.79,9,0,7.55-9.49,25.07-34.8,25.56,2.44-14.85,14.12-34.56,27.01-34.56Z"/>
  <path class="st1" d="M472.21,123.48c-195.42,0-353.84,58.16-353.84,129.47s158.42,129.46,353.84,129.46,353.84-58.16,353.84-129.46-158.42-129.47-353.84-129.47ZM472.21,373.89c-192.74,0-348.97-54.51-348.97-120.94s156.23-120.96,348.97-120.96,348.98,54.52,348.98,120.96-156.24,120.94-348.98,120.94Z"/>
  <path class="st1" d="M736.5,229.82c0,5.36-4.14,11.68-10.47,11.68-4.13,0-7.05-3.16-7.05-8.51v-1.7c-4.14,2.18-14.85,11.67-27.74,43.07l-7.55,19.95h-16.31s13.63-38.69,17.77-52.32c.73-2.43,1.22-5.11,1.22-6.33,0-.97-.49-1.94-1.7-1.94-1.71,0-5.85,1.94-13.39,12.65h-4.38c9-14.84,20.2-24.82,27.98-24.82,5.12,0,7.31,2.92,7.31,7.54,0,3.17-1.46,9.25-4.87,21.42,14.6-26.53,23.85-30.18,29.69-29.93,6.08,0,9.49,4.14,9.49,9.24Z"/>
  <g>
    <path class="st1" d="M106.75,491.19h33.7v8.26h-24.2v12.9h19.42v8.26h-19.42v21.3h-9.49v-50.72Z"/>
    <path class="st1" d="M148.35,540.07c-2.9-1.62-5.17-3.86-6.81-6.74s-2.46-6.1-2.46-9.67.82-6.8,2.46-9.67,3.91-5.12,6.81-6.74c2.9-1.62,6.18-2.43,9.85-2.43s6.88.81,9.78,2.43c2.9,1.62,5.17,3.87,6.81,6.74,1.64,2.87,2.46,6.1,2.46,9.67s-.82,6.8-2.46,9.67c-1.64,2.87-3.91,5.12-6.81,6.74-2.9,1.62-6.16,2.43-9.78,2.43s-6.96-.81-9.85-2.43ZM165.49,531.7c1.86-2.08,2.79-4.76,2.79-8.04s-.93-5.97-2.79-8.04c-1.86-2.08-4.29-3.12-7.28-3.12s-5.5,1.03-7.35,3.08c-1.86,2.05-2.79,4.75-2.79,8.08s.93,5.97,2.79,8.04c1.86,2.08,4.31,3.12,7.35,3.12s5.42-1.04,7.28-3.12Z"/>
    <path class="st1" d="M181.9,505.39h8.91v6.45c.92-2.32,2.11-3.97,3.59-4.96,1.47-.99,3.39-1.49,5.76-1.49h4.28v7.46h-5.72c-2.75,0-4.76,1.05-6.01,3.15-1.26,2.1-1.88,4.99-1.88,8.66v17.25h-8.91v-36.52Z"/>
    <path class="st1" d="M228.35,538.54c-2.37-2.25-3.55-5.37-3.55-9.38v-16.3h-7.17v-7.46h7.17v-11.01h8.91v11.01h10.15v7.46h-10.15v15.94c0,1.84.46,3.22,1.38,4.17.92.94,2.22,1.41,3.91,1.41h4.86v7.54h-5.87c-4.06,0-7.27-1.12-9.64-3.37Z"/>
    <path class="st1" d="M247.98,489.74h8.91v21.3c.97-1.98,2.45-3.51,4.46-4.6,2-1.09,4.31-1.63,6.92-1.63s5.08.62,7.14,1.85c2.05,1.23,3.63,2.93,4.75,5.11s1.67,4.69,1.67,7.54v22.61h-8.84v-20.72c0-2.51-.71-4.55-2.14-6.12-1.43-1.57-3.27-2.36-5.54-2.36-2.46,0-4.48.87-6.05,2.61-1.57,1.74-2.36,3.96-2.36,6.67v19.93h-8.91v-52.17Z"/>
    <path class="st1" d="M293.27,539.81c-2.8-1.79-4.94-4.13-6.41-7.03-1.47-2.9-2.21-5.99-2.21-9.28s.68-6.41,2.03-9.24c1.35-2.83,3.38-5.11,6.09-6.85,2.7-1.74,5.97-2.61,9.78-2.61s7.13.83,9.78,2.5,4.64,3.84,5.94,6.52c1.3,2.68,1.96,5.54,1.96,8.59,0,1.11-.05,2.15-.14,3.12h-26.81c.39,2.95,1.45,5.28,3.19,6.99,1.74,1.72,3.99,2.57,6.74,2.57,2.27,0,4.14-.46,5.62-1.38,1.47-.92,2.43-2.25,2.86-3.98h8.7c-.63,3.87-2.51,6.96-5.65,9.28-3.14,2.32-6.98,3.48-11.52,3.48-3.82,0-7.13-.89-9.93-2.68ZM311.39,519.45c-.19-2.37-1.06-4.28-2.61-5.72-1.55-1.45-3.62-2.17-6.23-2.17-2.46,0-4.46.68-5.98,2.03-1.52,1.35-2.55,3.31-3.08,5.87h17.9Z"/>
    <path class="st1" d="M335.15,491.19h9.71l10.51,36.59,11.09-36.59h8.12l11.09,36.59,10.58-36.59h9.64l-15.07,50.72h-9.49l-10.8-35.87-10.8,35.87h-9.35l-15.22-50.72Z"/>
    <path class="st1" d="M411.1,540.07c-2.9-1.62-5.17-3.86-6.81-6.74s-2.46-6.1-2.46-9.67.82-6.8,2.46-9.67,3.91-5.12,6.81-6.74c2.9-1.62,6.18-2.43,9.85-2.43s6.88.81,9.78,2.43c2.9,1.62,5.17,3.87,6.81,6.74,1.64,2.87,2.46,6.1,2.46,9.67s-.82,6.8-2.46,9.67c-1.64,2.87-3.91,5.12-6.81,6.74-2.9,1.62-6.16,2.43-9.78,2.43s-6.96-.81-9.85-2.43ZM428.23,531.7c1.86-2.08,2.79-4.76,2.79-8.04s-.93-5.97-2.79-8.04c-1.86-2.08-4.29-3.12-7.28-3.12s-5.5,1.03-7.35,3.08c-1.86,2.05-2.79,4.75-2.79,8.08s.93,5.97,2.79,8.04c1.86,2.08,4.31,3.12,7.35,3.12s5.42-1.04,7.28-3.12Z"/>
    <path class="st1" d="M444.64,505.39h8.91v6.45c.92-2.32,2.11-3.97,3.59-4.96,1.47-.99,3.39-1.49,5.76-1.49h4.28v7.46h-5.72c-2.75,0-4.76,1.05-6.01,3.15-1.26,2.1-1.88,4.99-1.88,8.66v17.25h-8.91v-36.52Z"/>
    <path class="st1" d="M471.82,489.74h8.91v52.17h-8.91v-52.17Z"/>
    <path class="st1" d="M493.37,540.1c-2.54-1.59-4.48-3.82-5.83-6.67-1.35-2.85-2.03-6.11-2.03-9.78s.68-6.93,2.03-9.78c1.35-2.85,3.31-5.07,5.87-6.67,2.56-1.59,5.58-2.39,9.06-2.39,2.27,0,4.38.45,6.34,1.34s3.51,2.11,4.67,3.66v-20.07h8.84v52.17h-8.84v-4.56c-1.11,1.55-2.67,2.79-4.67,3.73-2.01.94-4.17,1.41-6.49,1.41-3.43,0-6.41-.8-8.95-2.39ZM511.31,531.77c1.79-2.03,2.68-4.73,2.68-8.11s-.9-6.09-2.68-8.12c-1.79-2.03-4.18-3.04-7.17-3.04s-5.32,1.01-7.1,3.04c-1.79,2.03-2.68,4.73-2.68,8.12s.89,6.09,2.68,8.11c1.79,2.03,4.15,3.04,7.1,3.04s5.39-1.01,7.17-3.04Z"/>
    <path class="st1" d="M539.13,491.19h9.71l10.51,36.59,11.09-36.59h8.12l11.09,36.59,10.58-36.59h9.64l-15.07,50.72h-9.49l-10.8-35.87-10.8,35.87h-9.35l-15.22-50.72Z"/>
    <path class="st1" d="M614.42,539.81c-2.8-1.79-4.94-4.13-6.41-7.03-1.47-2.9-2.21-5.99-2.21-9.28s.68-6.41,2.03-9.24c1.35-2.83,3.38-5.11,6.09-6.85,2.7-1.74,5.97-2.61,9.78-2.61s7.13.83,9.78,2.5,4.64,3.84,5.94,6.52c1.3,2.68,1.96,5.54,1.96,8.59,0,1.11-.05,2.15-.14,3.12h-26.81c.39,2.95,1.45,5.28,3.19,6.99,1.74,1.72,3.99,2.57,6.74,2.57,2.27,0,4.14-.46,5.62-1.38,1.47-.92,2.43-2.25,2.86-3.98h8.7c-.63,3.87-2.51,6.96-5.65,9.28-3.14,2.32-6.98,3.48-11.52,3.48-3.82,0-7.13-.89-9.93-2.68ZM632.54,519.45c-.19-2.37-1.06-4.28-2.61-5.72-1.55-1.45-3.62-2.17-6.23-2.17-2.46,0-4.46.68-5.98,2.03-1.52,1.35-2.55,3.31-3.08,5.87h17.9Z"/>
    <path class="st1" d="M663.7,537.75c-3.48-3.16-5.36-7.45-5.65-12.86h9.28c.24,2.9,1.24,5.17,3.01,6.81,1.76,1.64,4.24,2.46,7.43,2.46,2.8,0,5.02-.57,6.67-1.7,1.64-1.13,2.46-2.79,2.46-4.96,0-1.5-.47-2.7-1.41-3.62-.94-.92-2.11-1.63-3.51-2.14-1.4-.51-3.38-1.07-5.94-1.7-3.48-.82-6.32-1.68-8.51-2.57-2.2-.89-4.08-2.35-5.65-4.38-1.57-2.03-2.36-4.76-2.36-8.19,0-2.8.75-5.28,2.25-7.43,1.5-2.15,3.59-3.83,6.27-5.04,2.68-1.21,5.71-1.81,9.09-1.81s6.64.64,9.35,1.92c2.7,1.28,4.85,3.1,6.45,5.47,1.59,2.37,2.46,5.12,2.61,8.26h-9.13c-.24-2.22-1.18-4.01-2.83-5.36s-3.79-2.03-6.45-2.03c-2.51,0-4.51.54-5.98,1.63-1.47,1.09-2.21,2.55-2.21,4.38,0,1.5.47,2.71,1.41,3.62.94.92,2.12,1.62,3.55,2.1,1.43.48,3.39,1.01,5.91,1.59,3.48.77,6.34,1.59,8.59,2.46,2.25.87,4.17,2.32,5.76,4.35,1.59,2.03,2.39,4.81,2.39,8.33,0,3.09-.79,5.77-2.35,8.04-1.57,2.27-3.78,4.02-6.63,5.25-2.85,1.23-6.11,1.85-9.78,1.85-5.89,0-10.58-1.58-14.06-4.75Z"/>
    <path class="st1" d="M701.16,489.74h8.91v21.3c.97-1.98,2.45-3.51,4.46-4.6,2-1.09,4.31-1.63,6.92-1.63s5.08.62,7.14,1.85c2.05,1.23,3.63,2.93,4.75,5.11,1.11,2.17,1.67,4.69,1.67,7.54v22.61h-8.84v-20.72c0-2.51-.71-4.55-2.14-6.12-1.43-1.57-3.27-2.36-5.54-2.36-2.46,0-4.48.87-6.05,2.61-1.57,1.74-2.36,3.96-2.36,6.67v19.93h-8.91v-52.17Z"/>
    <path class="st1" d="M743.29,539.38c-2.25-2.08-3.37-4.71-3.37-7.9,0-3.53,1.27-6.34,3.8-8.44,2.54-2.1,5.93-3.15,10.18-3.15h6.16c1.01,0,1.75-.18,2.21-.54.46-.36.69-.95.69-1.78,0-1.79-.65-3.24-1.96-4.35-1.3-1.11-3.12-1.67-5.43-1.67s-4.09.6-5.47,1.81c-1.38,1.21-2.11,2.66-2.21,4.35h-7.97c.14-2.41.89-4.6,2.25-6.56,1.35-1.96,3.22-3.5,5.62-4.64,2.39-1.13,5.13-1.7,8.22-1.7s5.77.57,8.19,1.7c2.41,1.14,4.29,2.73,5.62,4.78,1.33,2.05,1.99,4.41,1.99,7.06v23.55h-8.84v-5.43c-.72,1.84-2.08,3.3-4.06,4.38-1.98,1.09-4.25,1.63-6.81,1.63-3.62,0-6.56-1.04-8.8-3.12ZM760.61,533.29c1.57-1.74,2.36-3.98,2.36-6.74v-.58h-7.9c-1.98,0-3.56.46-4.75,1.38-1.18.92-1.78,2.17-1.78,3.77,0,1.45.52,2.61,1.56,3.48,1.04.87,2.4,1.3,4.09,1.3,2.7,0,4.84-.87,6.41-2.61Z"/>
    <path class="st1" d="M778.18,505.39h8.91v6.45c.92-2.32,2.11-3.97,3.59-4.96,1.47-.99,3.39-1.49,5.76-1.49h4.28v7.46h-5.72c-2.75,0-4.76,1.05-6.01,3.15-1.26,2.1-1.88,4.99-1.88,8.66v17.25h-8.91v-36.52Z"/>
    <path class="st1" d="M810.36,539.81c-2.8-1.79-4.94-4.13-6.41-7.03-1.47-2.9-2.21-5.99-2.21-9.28s.68-6.41,2.03-9.24c1.35-2.83,3.38-5.11,6.09-6.85,2.7-1.74,5.97-2.61,9.78-2.61s7.13.83,9.78,2.5c2.66,1.67,4.64,3.84,5.94,6.52,1.3,2.68,1.96,5.54,1.96,8.59,0,1.11-.05,2.15-.14,3.12h-26.81c.39,2.95,1.45,5.28,3.19,6.99,1.74,1.72,3.99,2.57,6.74,2.57,2.27,0,4.14-.46,5.62-1.38,1.47-.92,2.43-2.25,2.86-3.98h8.7c-.63,3.87-2.51,6.96-5.65,9.28-3.14,2.32-6.98,3.48-11.52,3.48-3.82,0-7.13-.89-9.93-2.68ZM828.47,519.45c-.19-2.37-1.06-4.28-2.61-5.72-1.55-1.45-3.62-2.17-6.23-2.17-2.46,0-4.46.68-5.98,2.03-1.52,1.35-2.55,3.31-3.08,5.87h17.9Z"/>
  </g>
</svg>