<?xml version="1.0" encoding="utf-8"?>
<!-- Generator: Adobe Illustrator 26.3.1, SVG Export Plug-In . SVG Version: 6.00 Build 0)  -->
<svg version="1.1" id="Layer_1" xmlns="http://www.w3.org/2000/svg" xmlns:xlink="http://www.w3.org/1999/xlink" x="0px" y="0px"
	 viewBox="0 0 1286.05 1185.7" style="enable-background:new 0 0 1286.05 1185.7;" xml:space="preserve">
<style type="text/css">
	.st0{fill:#EB1D03;}
	.st1{fill:#FA8002;}
	.st2{fill:#FFFFFF;}
</style>
<g>
	<path class="st0" d="M641.47,923.14h593.22c-13.2-494.05-417.84-890.5-915.08-890.5c-0.62,0-1.24,0.01-1.86,0.01v584.79
		C482.15,635.78,614.04,761.66,641.47,923.14z"/>
	<g>
		<path class="st1" d="M317.75,359.14v69.65c271.73,11.3,491.16,225.03,511.39,494.35h76.39
			C885.92,617.17,632.57,373.09,317.75,359.14z"/>
		<path class="st1" d="M317.75,507.06v54.51c194.03,18.64,349.39,169.59,374.79,361.57h60.11
			C727.09,702.28,545.31,527.64,317.75,507.06z"/>
		<path class="st1" d="M1125.37,609.5c-45.38-104.75-110.35-198.82-193.1-279.6c-82.75-80.79-179.11-144.22-286.41-188.52
			C541.67,98.35,431.4,75.22,317.75,72.51v22.46c110.53,2.7,217.77,25.23,319.1,67.08c104.55,43.17,198.44,104.97,279.07,183.69
			c80.63,78.72,143.94,170.39,188.16,272.47c41.99,96.91,64.98,199.36,68.51,304.94h23.1
			C1192.15,814.55,1168.55,709.17,1125.37,609.5z"/>
		<path class="st1" d="M846.91,413.88c-70.91-69.23-153.48-123.58-245.42-161.54c-90.07-37.19-185.44-57.02-283.75-59.05v18.72
			c95.69,2.03,188.54,21.36,276.22,57.57c89.64,37.02,170.15,90.01,239.29,157.51c69.14,67.5,123.43,146.11,161.34,233.63
			c36.13,83.39,55.85,171.56,58.77,262.42h19.27c-2.93-93.38-23.16-183.99-60.28-269.68C973.49,563.71,917.82,483.11,846.91,413.88z
			"/>
		<path class="st1" d="M648.56,605.06c-89.53-87.41-205.82-139.17-330.82-148.01v11v14.82v11
			c115.18,8.76,222.24,56.73,304.79,137.32c81.19,79.26,130.02,181.66,140.08,291.95h5.36h5.63h15.21h6.11h4.9
			C789.67,802.95,736.88,691.28,648.56,605.06z"/>
		<path class="st1" d="M818.09,448.03C748.3,379.9,667.03,326.41,576.55,289.04c-82.39-34.02-169.29-53.28-258.8-57.43v4.46v8.35
			v12.79v58.69v12.78v5.03v7.77c158.46,7.28,306.4,72.43,419.31,185.34C844.48,634.26,908.65,773.4,920.9,923.14h5.44h7.41h12.83
			h66.89h12.8h5.8h7.03c-5.57-82.64-25.03-162.89-58.08-239.19C942.72,595.57,887.9,516.19,818.09,448.03z"/>
		<path class="st1" d="M1099.76,631.04c-44.34-102.35-103.44-192.99-184.27-271.9c-80.81-78.89-183.6-147.77-288.36-191.03
			c-95.99-39.64-205.06-60.22-309.38-64.83v6.05v6.08v11.3v8.88v16.08v9.21v8.15c96.31,4.57,189.78,25.34,278.4,61.93
			c97.61,40.31,185.27,98.01,260.55,171.5c75.25,73.46,134.32,158.99,175.57,254.21c36.78,84.89,57.92,174.33,63.08,266.47h7.67h9.7
			h14.84h10.74h17.39h11.19C1161.66,822.86,1139.77,723.38,1099.76,631.04z"/>
	</g>
</g>
<g>
	<path class="st2" d="M41.99,863.56c0-15.13,0-27.69,9.42-39.68c9.13-11.7,20.55-19.12,35.4-19.12c19.12,0,30.54,13.13,36.25,30.26
		c3.43-24.55,23.98-41.1,48.81-41.1c17.7,0,32.54,6.85,44.24,20.27c13.42,15.41,13.7,30.54,13.7,50.81v83.64h-0.86
		c-8.85-13.99-24.83-11.99-39.96-11.99H82.52c-14.84,0-31.11-2-39.68,11.99h-0.86V863.56z M113.92,883.82
		c0.57-2,1.14-3.43,1.14-5.42c0-13.7-12.27-20.84-24.55-20.84c-11.13,0-21.98,5.71-21.98,17.98c0,2.85,0.57,5.42,1.71,8.28H113.92z
		 M199.56,883.82c2.85-4.28,3.43-7.42,3.43-12.56c0-18.55-15.41-25.98-31.97-25.98c-21.69,0-31.4,9.99-31.4,31.68v6.85H199.56z"/>
	<path class="st2" d="M188.99,719.98c14.84,0,31.11,2,39.96-11.99h0.86v76.79h-0.86c-8.85-13.99-25.12-11.99-39.96-11.99H82.81
		c-14.84,0-31.11-2-39.96,11.99h-0.86v-84.49c0-13.99-0.29-25.4,6.57-38.25c9.13-16.84,24.26-25.4,43.39-25.4
		c21.41,0,37.11,15.13,45.1,33.97l56.8-33.97c12.85-7.71,24.83-15.99,34.25-27.4l2.57,39.39c1.14,19.12-1.43,28.26-19.12,38.25
		l-62.23,33.11H188.99z M69.68,719.98h64.51c-3.14-17.7-18.27-30.83-36.25-30.83c-9.13,0-18.84,3.71-24.26,11.42
		c-3.43,4.85-4,10.85-4,16.56V719.98z"/>
	<path class="st2" d="M37.42,497.05c0-59.94,34.82-103.9,97.62-103.9c62.23,0,98.48,49.38,98.48,107.33
		c0,58.52-37.96,103.9-98.19,103.9C74.53,604.38,37.42,555,37.42,497.05z M180.43,535.59c13.7-7.99,24.55-22.26,24.55-38.54
		c0-15.13-7.71-28.83-19.98-37.96c-11.42-8.56-25.98-10.56-39.96-10.56c-32.54,0-79.07,12.85-79.07,51.95
		c0,33.68,32.26,48.53,61.66,48.53C144.18,549,166.16,543.58,180.43,535.59z"/>
	<path class="st2" d="M101.36,372.31c-9.71,0-35.68,0-43.96,1.43c-5.71,1.14-11.99,5.42-14.56,10.56h-0.86v-60.51
		c0-30.83-1.43-59.66,16.56-85.35c17.98-25.69,47.38-38.54,78.21-38.54c27.69,0,56.23,11.7,73.65,33.68
		c20.84,25.98,19.41,54.52,19.41,86.49v64.23h-0.86c-8.85-13.99-25.12-11.99-39.96-11.99H101.36z M199.27,319.51
		c1.71-5.14,2.28-10.28,2.28-15.41c0-17.98-5.42-29.4-21.12-38.82c-13.13-7.71-28.54-9.99-43.67-9.99
		c-29.4,0-64.51,10.28-64.51,45.39c0,6.28,0.86,12.56,2,18.84H199.27z"/>
	<path class="st2" d="M188.14,83.73c16.56,0,29.12-0.29,40.82-12.56h0.86v77.36h-0.86c-8.85-13.99-25.4-11.99-40.25-11.99h-43.96
		l-79.92,42.53c-9.13,4.85-16.84,9.42-21.98,17.98h-0.86v-66.22h0.86l67.37-33.11L77.67,81.73c-5.14-2.57-13.7-6.57-19.7-6.57
		c-7.71,0-11.7,2.85-15.13,8.85h-0.86V32.64h0.86l101.9,51.09H188.14z"/>
</g>
<g>
	<path class="st2" d="M95.31,1113.12c0,14.16,0.25,25.34,10.93,35.28v0.75H39.91v-0.75c12.17-7.7,10.43-21.86,10.43-34.78v-92.42
		c0-12.92,1.74-27.08-10.43-34.78v-0.75h58.63c13.91,0,32.05-0.25,44.47,5.96c15.16,7.45,23.6,21.86,23.6,38.76
		c0,35.28-29.81,48.94-60.87,48.94c-2.98,0-5.96,0-8.94-0.5c15.4-6.46,24.1-19.63,24.1-36.27c0-17.64-6.21-31.55-25.59-32.3V1113.12
		z"/>
	<path class="st2" d="M262.27,1121.57c8.2,3.23,17.39,3.73,26.09,3.73c13.91,0,26.83-2.24,36.27-13.66h1.24l-9.94,37.51H205.87
		v-0.75c12.17-7.7,10.43-21.62,10.43-34.53v-92.92c0-12.92,1.74-27.08-10.43-34.53v-0.75h86.96c3.73,0,7.7,0,10.43-1.24h0.75v36.02
		h-0.75c-6.71-11.68-20.87-10.43-33.04-10.43h-7.95v40.25h23.11c3.48,0,6.96-0.25,9.19-1.24h1.24v34.78h-1.24
		c-3.48-9.94-14.91-8.94-24.1-8.94h-8.2V1121.57z"/>
	<path class="st2" d="M520.16,1154.37c-8.7,0-22.36-6.21-29.81-9.94c-18.38-9.19-23.11-17.64-35.28-33.54l-47.7-63.6h-0.75v65.59
		c0,14.41,0.25,25.34,10.93,35.53v0.75H369.6v-0.75c10.93-10.19,11.18-21.12,11.18-35.53v-85.71c0-19.13-0.99-25.84-14.41-40.75
		v-0.75h51.68v0.75l76.27,99.87v-64.35c0-14.41-0.25-25.34-10.93-35.53v-0.75h47.7v0.75c-10.68,10.19-10.93,21.12-10.93,35.53
		V1154.37z"/>
	<path class="st2" d="M730.1,1154.37c-8.7,0-22.36-6.21-29.81-9.94c-18.38-9.19-23.1-17.64-35.28-33.54l-47.7-63.6h-0.75v65.59
		c0,14.41,0.25,25.34,10.93,35.53v0.75h-47.95v-0.75c10.93-10.19,11.18-21.12,11.18-35.53v-85.71c0-19.13-0.99-25.84-14.41-40.75
		v-0.75h51.68v0.75l76.27,99.87v-64.35c0-14.41-0.25-25.34-10.93-35.53v-0.75h47.7v0.75c-10.68,10.19-10.93,21.12-10.93,35.53
		V1154.37z"/>
	<path class="st2" d="M842.4,1121.57c8.2,3.23,17.39,3.73,26.09,3.73c13.91,0,26.83-2.24,36.27-13.66H906l-9.94,37.51H786v-0.75
		c12.17-7.7,10.43-21.62,10.43-34.53v-92.92c0-12.92,1.74-27.08-10.43-34.53v-0.75h86.96c3.73,0,7.7,0,10.44-1.24h0.75v36.02h-0.75
		c-6.71-11.68-20.87-10.43-33.04-10.43h-7.95v40.25h23.11c3.48,0,6.96-0.25,9.19-1.24h1.24v34.78h-1.24
		c-3.48-9.94-14.91-8.94-24.1-8.94h-8.2V1121.57z"/>
	<path class="st2" d="M1003.39,1121.07c7.95,3.73,17.14,4.22,26.09,4.22c13.67,0,24.35-2.73,35.28-10.93l-9.44,34.78H947v-0.75
		c12.17-7.7,10.43-21.62,10.43-34.53v-92.67c0-12.92,1.74-27.08-10.43-34.78v-0.75h66.83v0.75c-12.17,7.7-10.43,21.86-10.43,35.03
		V1121.07z"/>
	<path class="st2" d="M1163.64,1121.07c7.95,3.73,17.14,4.22,26.09,4.22c13.67,0,24.35-2.73,35.28-10.93l-9.44,34.78h-108.32v-0.75
		c12.17-7.7,10.43-21.62,10.43-34.53v-92.67c0-12.92,1.74-27.08-10.43-34.78v-0.75h66.83v0.75c-12.17,7.7-10.43,21.86-10.43,35.03
		V1121.07z"/>
</g>
</svg>
