<svg xmlns="http://www.w3.org/2000/svg" width="150" height="30" viewBox="0 0 150 30" role="img" aria-label="5 star rating"><g fill="#fc7504"><path d="M15 2l3.5 8.4 9.1.7-6.9 5.9 2.1 8.9L15 21.6 7.1 26.4l2.1-8.9-6.9-5.9 9.1-.7z"/><path d="M45 2l3.5 8.4 9.1.7-6.9 5.9 2.1 8.9L45 21.6l-7.9 4.8 2.1-8.9-6.9-5.9 9.1-.7z"/><path d="M75 2l3.5 8.4 9.1.7-6.9 5.9 2.1 8.9L75 21.6l-7.9 4.8 2.1-8.9-6.9-5.9 9.1-.7z"/><path d="M105 2l3.5 8.4 9.1.7-6.9 5.9 2.1 8.9-7.8-4.8-7.9 4.8 2.1-8.9-6.9-5.9 9.1-.7z"/><path d="M135 2l3.5 8.4 9.1.7-6.9 5.9 2.1 8.9-7.8-4.8-7.9 4.8 2.1-8.9-6.9-5.9 9.1-.7z"/></g></svg>
