<svg xmlns="http://www.w3.org/2000/svg" xmlns:xlink="http://www.w3.org/1999/xlink" width="300" zoomAndPan="magnify" viewBox="0 0 224.87999 112.499997" height="150" preserveAspectRatio="xMidYMid meet" version="1.0"><defs><g/><clipPath id="id1"><path d="M 20 66 L 44 66 L 44 92.347656 L 20 92.347656 Z M 20 66 " clip-rule="nonzero"/></clipPath><clipPath id="id2"><path d="M 14 19.917969 L 39 19.917969 L 39 55 L 14 55 Z M 14 19.917969 " clip-rule="nonzero"/></clipPath><clipPath id="id3"><path d="M 43 63 L 69.625 63 L 69.625 86 L 43 86 Z M 43 63 " clip-rule="nonzero"/></clipPath><clipPath id="id4"><path d="M 72.800781 25.308594 L 100 25.308594 L 100 50.695312 L 72.800781 50.695312 Z M 72.800781 25.308594 " clip-rule="nonzero"/></clipPath><clipPath id="id5"><path d="M 101 25.308594 L 128 25.308594 L 128 50.695312 L 101 50.695312 Z M 101 25.308594 " clip-rule="nonzero"/></clipPath><clipPath id="id6"><path d="M 129 25.308594 L 157 25.308594 L 157 50.695312 L 129 50.695312 Z M 129 25.308594 " clip-rule="nonzero"/></clipPath><clipPath id="id7"><path d="M 158 25.308594 L 185 25.308594 L 185 50.695312 L 158 50.695312 Z M 158 25.308594 " clip-rule="nonzero"/></clipPath><clipPath id="id8"><path d="M 186 25.308594 L 213 25.308594 L 213 50.695312 L 186 50.695312 Z M 186 25.308594 " clip-rule="nonzero"/></clipPath></defs><g clip-path="url(#id1)"><path fill="#d10202" d="M 39.4375 68.269531 C 39.257812 67.300781 38.558594 66.53125 37.613281 66.265625 C 36.667969 65.996094 35.671875 66.285156 35.011719 67.015625 L 21.316406 82.191406 C 20.816406 82.746094 20.570312 83.488281 20.640625 84.234375 C 20.710938 84.980469 21.089844 85.664062 21.6875 86.117188 C 27.058594 90.195312 33.425781 92.339844 40.140625 92.339844 C 40.359375 92.339844 40.574219 92.335938 40.792969 92.332031 C 41.578125 92.316406 42.308594 91.953125 42.804688 91.34375 C 43.296875 90.734375 43.5 89.941406 43.355469 89.167969 Z M 39.4375 68.269531 " fill-opacity="1" fill-rule="nonzero"/></g><g clip-path="url(#id2)"><path fill="#d10202" d="M 34.332031 53.226562 C 34.832031 53.777344 35.527344 54.074219 36.238281 54.074219 C 36.578125 54.074219 36.921875 54.007812 37.246094 53.867188 C 38.253906 53.433594 38.878906 52.40625 38.796875 51.308594 L 36.695312 22.4375 C 36.640625 21.730469 36.304688 21.0625 35.769531 20.601562 C 35.226562 20.136719 34.535156 19.914062 33.824219 19.972656 C 26.933594 20.550781 20.367188 23.5 15.335938 28.273438 C 14.296875 29.261719 14.230469 30.933594 15.195312 32 Z M 34.332031 53.226562 " fill-opacity="1" fill-rule="nonzero"/></g><g clip-path="url(#id3)"><path fill="#d10202" d="M 68.941406 65.542969 C 68.476562 64.9375 67.773438 64.5625 67.011719 64.511719 L 46.4375 63.132812 C 45.460938 63.070312 44.546875 63.554688 44.050781 64.402344 C 43.558594 65.25 43.582031 66.289062 44.113281 67.109375 L 55.429688 84.574219 C 55.847656 85.222656 56.523438 85.65625 57.285156 85.765625 C 57.410156 85.78125 57.535156 85.789062 57.65625 85.789062 C 58.292969 85.789062 58.914062 85.5625 59.402344 85.136719 C 64.660156 80.574219 68.132812 74.539062 69.449219 67.683594 C 69.589844 66.929688 69.40625 66.152344 68.941406 65.542969 Z M 68.941406 65.542969 " fill-opacity="1" fill-rule="nonzero"/></g><path fill="#d10202" d="M 45.550781 58.613281 C 45.765625 58.613281 45.980469 58.585938 46.191406 58.53125 L 66.398438 53.363281 C 67.148438 53.171875 67.777344 52.660156 68.121094 51.960938 C 68.46875 51.257812 68.492188 50.445312 68.1875 49.726562 C 65.464844 43.308594 60.804688 38.140625 54.707031 34.789062 C 54.042969 34.421875 53.253906 34.359375 52.539062 34.613281 C 51.828125 34.863281 51.253906 35.410156 50.964844 36.109375 L 43.183594 55.050781 C 42.8125 55.957031 42.980469 56.984375 43.621094 57.722656 C 44.117188 58.296875 44.820312 58.613281 45.550781 58.613281 Z M 45.550781 58.613281 " fill-opacity="1" fill-rule="nonzero"/><path fill="#d10202" d="M 33.558594 61.484375 C 33.597656 60.523438 33.109375 59.628906 32.28125 59.148438 L 15.152344 49.167969 C 14.484375 48.777344 13.683594 48.699219 12.953125 48.953125 C 12.21875 49.207031 11.632812 49.765625 11.347656 50.488281 C 8.765625 56.957031 8.441406 63.910156 10.398438 70.597656 C 10.617188 71.347656 11.152344 71.964844 11.863281 72.285156 C 12.210938 72.441406 12.582031 72.519531 12.953125 72.519531 C 13.339844 72.519531 13.730469 72.433594 14.089844 72.261719 L 32.089844 63.707031 C 32.957031 63.296875 33.519531 62.445312 33.558594 61.484375 Z M 33.558594 61.484375 " fill-opacity="1" fill-rule="nonzero"/><g clip-path="url(#id4)"><path fill="#f4ebd9" d="M 86.175781 25.304688 L 89.289062 35.003906 L 99.367188 35.003906 L 91.214844 40.996094 L 94.328125 50.695312 L 86.175781 44.703125 L 78.023438 50.695312 L 81.136719 40.996094 L 72.984375 35.003906 L 83.0625 35.003906 L 86.175781 25.304688 " fill-opacity="1" fill-rule="nonzero"/></g><g clip-path="url(#id5)"><path fill="#f4ebd9" d="M 114.582031 25.304688 L 117.695312 35.003906 L 127.773438 35.003906 L 119.621094 40.996094 L 122.734375 50.695312 L 114.582031 44.703125 L 106.429688 50.695312 L 109.546875 40.996094 L 101.394531 35.003906 L 111.46875 35.003906 L 114.582031 25.304688 " fill-opacity="1" fill-rule="nonzero"/></g><g clip-path="url(#id6)"><path fill="#f4ebd9" d="M 142.992188 25.304688 L 146.105469 35.003906 L 156.179688 35.003906 L 148.027344 40.996094 L 151.144531 50.695312 L 142.992188 44.703125 L 134.839844 50.695312 L 137.953125 40.996094 L 129.800781 35.003906 L 139.878906 35.003906 L 142.992188 25.304688 " fill-opacity="1" fill-rule="nonzero"/></g><g clip-path="url(#id7)"><path fill="#f4ebd9" d="M 171.398438 25.304688 L 174.511719 35.003906 L 184.585938 35.003906 L 176.4375 40.996094 L 179.550781 50.695312 L 171.398438 44.703125 L 163.246094 50.695312 L 166.359375 40.996094 L 158.207031 35.003906 L 168.285156 35.003906 L 171.398438 25.304688 " fill-opacity="1" fill-rule="nonzero"/></g><g clip-path="url(#id8)"><path fill="#f4ebd9" d="M 199.804688 25.304688 L 202.917969 35.003906 L 212.996094 35.003906 L 204.84375 40.996094 L 207.957031 50.695312 L 199.804688 44.703125 L 191.652344 50.695312 L 194.765625 40.996094 L 186.617188 35.003906 L 196.691406 35.003906 L 199.804688 25.304688 " fill-opacity="1" fill-rule="nonzero"/></g><g fill="#f4ebd9" fill-opacity="1"><g transform="translate(78.817708, 80.167663)"><g><path d="M 0.804688 -3.429688 L 7.929688 -3.429688 L 7.929688 -0.460938 C 7.929688 -0.21875 8.148438 0 8.394531 0 L 10.996094 0 C 11.238281 0 11.457031 -0.21875 11.457031 -0.460938 L 11.433594 -3.453125 L 13.355469 -3.453125 C 13.625 -3.453125 13.816406 -3.671875 13.816406 -3.917969 L 13.816406 -5.9375 C 13.816406 -6.179688 13.625 -6.375 13.355469 -6.375 L 11.433594 -6.375 L 11.410156 -16.347656 C 11.410156 -16.617188 11.191406 -16.808594 10.945312 -16.808594 L 9.195312 -16.808594 C 8.976562 -16.808594 8.902344 -16.738281 8.832031 -16.664062 L 0.339844 -6.472656 L 0.339844 -3.890625 C 0.339844 -3.648438 0.535156 -3.429688 0.804688 -3.429688 Z M 4.160156 -6.445312 L 8.027344 -10.972656 L 8.027344 -6.445312 Z M 4.160156 -6.445312 "/></g></g></g><g fill="#f4ebd9" fill-opacity="1"><g transform="translate(93.413041, 80.167663)"><g><path d="M 0.65625 -2.042969 C 0.65625 -0.804688 1.703125 0.242188 2.945312 0.242188 C 4.207031 0.242188 5.277344 -0.804688 5.277344 -2.042969 C 5.277344 -3.308594 4.207031 -4.378906 2.945312 -4.378906 C 1.703125 -4.378906 0.65625 -3.308594 0.65625 -2.042969 Z M 0.65625 -2.042969 "/></g></g></g><g fill="#f4ebd9" fill-opacity="1"><g transform="translate(99.348472, 80.167663)"><g><path d="M 0.972656 -4.402344 C 0.972656 -1.75 3.308594 0.242188 6.835938 0.242188 C 10.484375 0.242188 12.820312 -1.75 12.820312 -4.402344 C 12.820312 -6.496094 10.945312 -7.882812 9.851562 -8.488281 L 9.851562 -8.585938 C 10.800781 -9.195312 12.359375 -10.484375 12.359375 -12.332031 C 12.359375 -15.058594 9.925781 -16.785156 6.835938 -16.785156 C 3.867188 -16.785156 1.433594 -15.058594 1.433594 -12.332031 C 1.433594 -10.410156 2.992188 -9.097656 3.941406 -8.5625 L 3.941406 -8.488281 C 3.480469 -8.222656 0.972656 -6.542969 0.972656 -4.402344 Z M 6.882812 -10.167969 C 5.742188 -10.605469 5.179688 -11.3125 5.179688 -12.1875 C 5.179688 -13.015625 5.984375 -13.769531 6.882812 -13.769531 C 7.808594 -13.769531 8.613281 -13.015625 8.613281 -12.1875 C 8.613281 -11.359375 8.027344 -10.582031 6.882812 -10.167969 Z M 4.914062 -4.574219 C 4.914062 -5.472656 5.621094 -6.375 6.882812 -6.8125 C 8.199219 -6.375 8.878906 -5.472656 8.878906 -4.574219 C 8.878906 -3.527344 7.882812 -2.75 6.910156 -2.75 C 5.910156 -2.75 4.914062 -3.503906 4.914062 -4.574219 Z M 4.914062 -4.574219 "/></g></g></g><g fill="#f4ebd9" fill-opacity="1"><g transform="translate(113.141068, 80.167663)"><g/></g></g><g fill="#f4ebd9" fill-opacity="1"><g transform="translate(118.517012, 80.167663)"><g><path d="M 2.09375 -0.460938 C 2.09375 -0.21875 2.285156 0 2.554688 0 L 5.449219 0 C 5.691406 0 5.910156 -0.21875 5.910156 -0.460938 L 5.910156 -6.664062 L 7.589844 -6.664062 L 10.824219 -0.21875 C 10.875 -0.121094 11.019531 0 11.214844 0 L 14.449219 0 C 14.863281 0 15.035156 -0.390625 14.863281 -0.707031 L 11.53125 -6.882812 C 13.648438 -7.734375 15.132812 -9.535156 15.132812 -11.773438 C 15.132812 -14.667969 12.746094 -17.027344 9.828125 -17.027344 L 2.554688 -17.027344 C 2.285156 -17.027344 2.09375 -16.808594 2.09375 -16.566406 Z M 5.910156 -9.753906 L 5.910156 -13.550781 L 9.511719 -13.550781 C 10.507812 -13.550781 11.359375 -12.722656 11.359375 -11.703125 C 11.359375 -10.679688 10.507812 -9.753906 9.511719 -9.753906 Z M 5.910156 -9.753906 "/></g></g></g><g fill="#f4ebd9" fill-opacity="1"><g transform="translate(134.815131, 80.167663)"><g><path d="M 0.316406 0 L 2.992188 0 C 3.480469 0 3.746094 -0.292969 3.867188 -0.582031 L 4.742188 -2.53125 L 11.359375 -2.53125 L 12.238281 -0.609375 C 12.457031 -0.144531 12.648438 0 13.085938 0 L 15.789062 0 C 16.152344 0 16.347656 -0.316406 16.203125 -0.632812 L 8.585938 -17.003906 C 8.515625 -17.152344 8.34375 -17.273438 8.175781 -17.273438 L 7.929688 -17.273438 C 7.761719 -17.273438 7.589844 -17.152344 7.515625 -17.003906 L -0.0976562 -0.632812 C -0.242188 -0.316406 -0.046875 0 0.316406 0 Z M 6.203125 -5.839844 L 8.027344 -9.851562 L 8.050781 -9.851562 L 9.902344 -5.839844 Z M 6.203125 -5.839844 "/></g></g></g><g fill="#f4ebd9" fill-opacity="1"><g transform="translate(150.918649, 80.167663)"><g><path d="M 4.28125 -0.460938 C 4.28125 -0.21875 4.5 0 4.742188 0 L 7.664062 0 C 7.90625 0 8.125 -0.21875 8.125 -0.460938 L 8.125 -13.453125 L 11.605469 -13.453125 C 11.871094 -13.453125 12.066406 -13.671875 12.066406 -13.914062 L 12.066406 -16.566406 C 12.066406 -16.808594 11.871094 -17.027344 11.605469 -17.027344 L 0.804688 -17.027344 C 0.535156 -17.027344 0.339844 -16.808594 0.339844 -16.566406 L 0.339844 -13.914062 C 0.339844 -13.671875 0.535156 -13.453125 0.804688 -13.453125 L 4.28125 -13.453125 Z M 4.28125 -0.460938 "/></g></g></g><g fill="#f4ebd9" fill-opacity="1"><g transform="translate(163.324684, 80.167663)"><g><path d="M 2.09375 -0.460938 C 2.09375 -0.21875 2.3125 0 2.554688 0 L 5.472656 0 C 5.71875 0 5.9375 -0.21875 5.9375 -0.460938 L 5.9375 -16.566406 C 5.9375 -16.808594 5.71875 -17.027344 5.472656 -17.027344 L 2.554688 -17.027344 C 2.3125 -17.027344 2.09375 -16.808594 2.09375 -16.566406 Z M 2.09375 -0.460938 "/></g></g></g><g fill="#f4ebd9" fill-opacity="1"><g transform="translate(171.352113, 80.167663)"><g><path d="M 2.09375 -0.460938 C 2.09375 -0.21875 2.3125 0 2.554688 0 L 5.449219 0 C 5.71875 0 5.910156 -0.21875 5.910156 -0.460938 L 5.910156 -9.535156 C 5.910156 -9.535156 5.9375 -9.535156 5.9375 -9.535156 L 15.542969 0.121094 C 15.59375 0.171875 15.789062 0.242188 15.859375 0.242188 L 16.25 0.242188 C 16.492188 0.242188 16.710938 0.046875 16.710938 -0.195312 L 16.710938 -16.566406 C 16.710938 -16.808594 16.492188 -17.027344 16.25 -17.027344 L 13.332031 -17.027344 C 13.0625 -17.027344 12.867188 -16.808594 12.867188 -16.566406 L 12.867188 -7.929688 C 12.867188 -7.929688 12.84375 -7.929688 12.84375 -7.929688 L 3.136719 -17.273438 L 2.53125 -17.273438 C 2.285156 -17.273438 2.066406 -17.078125 2.066406 -16.835938 Z M 2.09375 -0.460938 "/></g></g></g><g fill="#f4ebd9" fill-opacity="1"><g transform="translate(190.155766, 80.167663)"><g><path d="M 0.875 -8.488281 C 0.875 -3.625 4.769531 0.21875 9.609375 0.21875 C 13.136719 0.21875 15.640625 -1.363281 15.640625 -1.363281 C 15.738281 -1.433594 15.835938 -1.628906 15.835938 -1.75 L 15.8125 -8.296875 C 15.8125 -8.539062 15.617188 -8.757812 15.375 -8.757812 L 10.484375 -8.757812 C 10.21875 -8.757812 10.023438 -8.5625 10.023438 -8.296875 L 10.023438 -5.886719 C 10.023438 -5.644531 10.21875 -5.449219 10.484375 -5.449219 L 12.015625 -5.449219 L 12.015625 -4.039062 C 11.289062 -3.746094 10.558594 -3.648438 9.851562 -3.648438 C 7.199219 -3.648438 5.035156 -5.839844 5.035156 -8.488281 C 5.035156 -11.167969 7.175781 -13.402344 9.828125 -13.402344 C 11.019531 -13.402344 12.089844 -13.085938 13.015625 -12.238281 C 13.210938 -12.089844 13.476562 -12.089844 13.671875 -12.261719 L 15.59375 -14.304688 C 15.789062 -14.5 15.765625 -14.789062 15.542969 -14.960938 C 13.890625 -16.394531 11.652344 -17.246094 9.609375 -17.246094 C 4.769531 -17.246094 0.875 -13.355469 0.875 -8.488281 Z M 0.875 -8.488281 "/></g></g></g></svg>