<svg xmlns="http://www.w3.org/2000/svg" xmlns:xlink="http://www.w3.org/1999/xlink" width="300" zoomAndPan="magnify" viewBox="0 0 224.87999 112.499997" height="150" preserveAspectRatio="xMidYMid meet" version="1.0"><defs><g/><clipPath id="id1"><path d="M 72.800781 25.308594 L 100 25.308594 L 100 50.695312 L 72.800781 50.695312 Z M 72.800781 25.308594 " clip-rule="nonzero"/></clipPath><clipPath id="id2"><path d="M 101 25.308594 L 128 25.308594 L 128 50.695312 L 101 50.695312 Z M 101 25.308594 " clip-rule="nonzero"/></clipPath><clipPath id="id3"><path d="M 129 25.308594 L 157 25.308594 L 157 50.695312 L 129 50.695312 Z M 129 25.308594 " clip-rule="nonzero"/></clipPath><clipPath id="id4"><path d="M 158 25.308594 L 185 25.308594 L 185 50.695312 L 158 50.695312 Z M 158 25.308594 " clip-rule="nonzero"/></clipPath><clipPath id="id5"><path d="M 186 25.308594 L 213 25.308594 L 213 50.695312 L 186 50.695312 Z M 186 25.308594 " clip-rule="nonzero"/></clipPath><clipPath id="id6"><path d="M 6.21875 23.957031 L 70.433594 23.957031 L 70.433594 88.171875 L 6.21875 88.171875 Z M 6.21875 23.957031 " clip-rule="nonzero"/></clipPath></defs><g clip-path="url(#id1)"><path fill="#f4ebd9" d="M 86.175781 25.304688 L 89.289062 35.003906 L 99.367188 35.003906 L 91.214844 40.996094 L 94.328125 50.695312 L 86.175781 44.703125 L 78.023438 50.695312 L 81.136719 40.996094 L 72.984375 35.003906 L 83.0625 35.003906 L 86.175781 25.304688 " fill-opacity="1" fill-rule="nonzero"/></g><g clip-path="url(#id2)"><path fill="#f4ebd9" d="M 114.582031 25.304688 L 117.695312 35.003906 L 127.773438 35.003906 L 119.621094 40.996094 L 122.734375 50.695312 L 114.582031 44.703125 L 106.429688 50.695312 L 109.546875 40.996094 L 101.394531 35.003906 L 111.46875 35.003906 L 114.582031 25.304688 " fill-opacity="1" fill-rule="nonzero"/></g><g clip-path="url(#id3)"><path fill="#f4ebd9" d="M 142.992188 25.304688 L 146.105469 35.003906 L 156.179688 35.003906 L 148.027344 40.996094 L 151.144531 50.695312 L 142.992188 44.703125 L 134.839844 50.695312 L 137.953125 40.996094 L 129.800781 35.003906 L 139.878906 35.003906 L 142.992188 25.304688 " fill-opacity="1" fill-rule="nonzero"/></g><g clip-path="url(#id4)"><path fill="#f4ebd9" d="M 171.398438 25.304688 L 174.511719 35.003906 L 184.585938 35.003906 L 176.4375 40.996094 L 179.550781 50.695312 L 171.398438 44.703125 L 163.246094 50.695312 L 166.359375 40.996094 L 158.207031 35.003906 L 168.285156 35.003906 L 171.398438 25.304688 " fill-opacity="1" fill-rule="nonzero"/></g><g clip-path="url(#id5)"><path fill="#f4ebd9" d="M 199.804688 25.304688 L 202.917969 35.003906 L 212.996094 35.003906 L 204.84375 40.996094 L 207.957031 50.695312 L 199.804688 44.703125 L 191.652344 50.695312 L 194.765625 40.996094 L 186.617188 35.003906 L 196.691406 35.003906 L 199.804688 25.304688 " fill-opacity="1" fill-rule="nonzero"/></g><g clip-path="url(#id6)"><path fill="#1a4789" d="M 70.4375 56.066406 C 70.4375 57.117188 70.386719 58.167969 70.28125 59.214844 C 70.179688 60.261719 70.027344 61.300781 69.820312 62.332031 C 69.617188 63.363281 69.359375 64.378906 69.054688 65.386719 C 68.75 66.394531 68.394531 67.382812 67.992188 68.351562 C 67.589844 69.324219 67.140625 70.273438 66.644531 71.203125 C 66.152344 72.128906 65.609375 73.03125 65.027344 73.90625 C 64.441406 74.777344 63.816406 75.621094 63.148438 76.433594 C 62.480469 77.25 61.777344 78.027344 61.035156 78.769531 C 60.289062 79.511719 59.511719 80.21875 58.699219 80.886719 C 57.886719 81.554688 57.042969 82.179688 56.167969 82.761719 C 55.292969 83.347656 54.394531 83.886719 53.464844 84.382812 C 52.539062 84.878906 51.589844 85.328125 50.617188 85.730469 C 49.644531 86.132812 48.65625 86.484375 47.648438 86.792969 C 46.644531 87.097656 45.625 87.351562 44.59375 87.558594 C 43.5625 87.761719 42.523438 87.917969 41.476562 88.019531 C 40.429688 88.121094 39.382812 88.175781 38.328125 88.175781 C 37.277344 88.175781 36.230469 88.121094 35.183594 88.019531 C 34.136719 87.917969 33.097656 87.761719 32.066406 87.558594 C 31.035156 87.351562 30.015625 87.097656 29.007812 86.792969 C 28.003906 86.484375 27.015625 86.132812 26.042969 85.730469 C 25.070312 85.328125 24.121094 84.878906 23.195312 84.382812 C 22.265625 83.886719 21.367188 83.347656 20.492188 82.761719 C 19.617188 82.179688 18.773438 81.554688 17.960938 80.886719 C 17.148438 80.21875 16.371094 79.511719 15.625 78.769531 C 14.882812 78.027344 14.175781 77.25 13.511719 76.433594 C 12.84375 75.621094 12.21875 74.777344 11.632812 73.90625 C 11.050781 73.03125 10.507812 72.128906 10.011719 71.203125 C 9.519531 70.273438 9.070312 69.324219 8.667969 68.351562 C 8.265625 67.382812 7.910156 66.394531 7.605469 65.386719 C 7.300781 64.378906 7.042969 63.363281 6.839844 62.332031 C 6.632812 61.300781 6.480469 60.261719 6.375 59.214844 C 6.273438 58.167969 6.222656 57.117188 6.222656 56.066406 C 6.222656 55.015625 6.273438 53.964844 6.375 52.917969 C 6.480469 51.871094 6.632812 50.832031 6.839844 49.800781 C 7.042969 48.769531 7.300781 47.753906 7.605469 46.746094 C 7.910156 45.738281 8.265625 44.75 8.667969 43.78125 C 9.070312 42.808594 9.519531 41.859375 10.011719 40.929688 C 10.507812 40.003906 11.050781 39.101562 11.632812 38.226562 C 12.21875 37.355469 12.84375 36.511719 13.511719 35.699219 C 14.175781 34.882812 14.882812 34.105469 15.625 33.363281 C 16.371094 32.621094 17.148438 31.914062 17.960938 31.246094 C 18.773438 30.578125 19.617188 29.953125 20.492188 29.371094 C 21.367188 28.785156 22.265625 28.246094 23.195312 27.75 C 24.121094 27.253906 25.070312 26.804688 26.042969 26.402344 C 27.015625 26 28.003906 25.648438 29.007812 25.339844 C 30.015625 25.035156 31.035156 24.78125 32.066406 24.574219 C 33.097656 24.371094 34.136719 24.214844 35.183594 24.113281 C 36.230469 24.011719 37.277344 23.957031 38.328125 23.957031 C 39.382812 23.957031 40.429688 24.011719 41.476562 24.113281 C 42.523438 24.214844 43.5625 24.371094 44.59375 24.574219 C 45.625 24.78125 46.644531 25.035156 47.648438 25.339844 C 48.65625 25.648438 49.644531 26 50.617188 26.402344 C 51.589844 26.804688 52.539062 27.253906 53.464844 27.75 C 54.394531 28.246094 55.292969 28.785156 56.167969 29.371094 C 57.042969 29.953125 57.886719 30.578125 58.699219 31.246094 C 59.511719 31.914062 60.289062 32.621094 61.035156 33.363281 C 61.777344 34.105469 62.480469 34.882812 63.148438 35.699219 C 63.816406 36.511719 64.441406 37.355469 65.027344 38.226562 C 65.609375 39.101562 66.152344 40.003906 66.644531 40.929688 C 67.140625 41.859375 67.589844 42.808594 67.992188 43.78125 C 68.394531 44.75 68.75 45.738281 69.054688 46.746094 C 69.359375 47.753906 69.617188 48.769531 69.820312 49.800781 C 70.027344 50.832031 70.179688 51.871094 70.28125 52.917969 C 70.386719 53.964844 70.4375 55.015625 70.4375 56.066406 Z M 70.4375 56.066406 " fill-opacity="1" fill-rule="nonzero"/></g><path fill="#ffffff" d="M 46.390625 57.71875 L 47.296875 50.679688 L 40.328125 50.679688 L 40.328125 46.183594 C 40.328125 44.148438 40.894531 42.757812 43.816406 42.757812 L 47.542969 42.757812 L 47.542969 36.460938 C 46.898438 36.375 44.6875 36.183594 42.109375 36.183594 C 36.734375 36.183594 33.058594 39.464844 33.058594 45.488281 L 33.058594 50.679688 L 26.980469 50.679688 L 26.980469 57.71875 L 33.058594 57.71875 L 33.058594 75.777344 L 40.328125 75.777344 L 40.328125 57.71875 Z M 46.390625 57.71875 " fill-opacity="1" fill-rule="nonzero"/><g fill="#f4ebd9" fill-opacity="1"><g transform="translate(79.179382, 80.167663)"><g><path d="M 0.804688 -3.429688 L 7.929688 -3.429688 L 7.929688 -0.460938 C 7.929688 -0.21875 8.148438 0 8.394531 0 L 10.996094 0 C 11.238281 0 11.457031 -0.21875 11.457031 -0.460938 L 11.433594 -3.453125 L 13.355469 -3.453125 C 13.625 -3.453125 13.816406 -3.671875 13.816406 -3.917969 L 13.816406 -5.9375 C 13.816406 -6.179688 13.625 -6.375 13.355469 -6.375 L 11.433594 -6.375 L 11.410156 -16.347656 C 11.410156 -16.617188 11.191406 -16.808594 10.945312 -16.808594 L 9.195312 -16.808594 C 8.976562 -16.808594 8.902344 -16.738281 8.832031 -16.664062 L 0.339844 -6.472656 L 0.339844 -3.890625 C 0.339844 -3.648438 0.535156 -3.429688 0.804688 -3.429688 Z M 4.160156 -6.445312 L 8.027344 -10.972656 L 8.027344 -6.445312 Z M 4.160156 -6.445312 "/></g></g></g><g fill="#f4ebd9" fill-opacity="1"><g transform="translate(93.774715, 80.167663)"><g><path d="M 0.65625 -2.042969 C 0.65625 -0.804688 1.703125 0.242188 2.945312 0.242188 C 4.207031 0.242188 5.277344 -0.804688 5.277344 -2.042969 C 5.277344 -3.308594 4.207031 -4.378906 2.945312 -4.378906 C 1.703125 -4.378906 0.65625 -3.308594 0.65625 -2.042969 Z M 0.65625 -2.042969 "/></g></g></g><g fill="#f4ebd9" fill-opacity="1"><g transform="translate(99.710146, 80.167663)"><g><path d="M 2.53125 -1.875 L 3.234375 0 C 3.355469 0.339844 3.625 0.488281 3.988281 0.390625 C 6.226562 -0.269531 12.164062 -3.164062 12.164062 -10.316406 C 12.164062 -14.109375 10.070312 -16.929688 6.300781 -16.929688 C 3.261719 -16.929688 0.730469 -14.425781 0.730469 -11.359375 C 0.730469 -7.761719 3.285156 -6.082031 5.570312 -6.082031 C 6.226562 -6.082031 7.25 -6.300781 7.882812 -6.566406 C 7.371094 -4.0625 4.136719 -2.945312 2.992188 -2.578125 C 2.503906 -2.433594 2.433594 -2.164062 2.53125 -1.875 Z M 6.347656 -8.878906 C 5.058594 -8.878906 4.015625 -9.949219 4.015625 -11.238281 C 4.015625 -12.503906 5.058594 -13.574219 6.347656 -13.574219 C 7.636719 -13.574219 8.683594 -12.503906 8.683594 -11.238281 C 8.683594 -9.949219 7.636719 -8.878906 6.347656 -8.878906 Z M 6.347656 -8.878906 "/></g></g></g><g fill="#f4ebd9" fill-opacity="1"><g transform="translate(112.772968, 80.167663)"><g/></g></g><g fill="#f4ebd9" fill-opacity="1"><g transform="translate(118.148912, 80.167663)"><g><path d="M 2.09375 -0.460938 C 2.09375 -0.21875 2.285156 0 2.554688 0 L 5.449219 0 C 5.691406 0 5.910156 -0.21875 5.910156 -0.460938 L 5.910156 -6.664062 L 7.589844 -6.664062 L 10.824219 -0.21875 C 10.875 -0.121094 11.019531 0 11.214844 0 L 14.449219 0 C 14.863281 0 15.035156 -0.390625 14.863281 -0.707031 L 11.53125 -6.882812 C 13.648438 -7.734375 15.132812 -9.535156 15.132812 -11.773438 C 15.132812 -14.667969 12.746094 -17.027344 9.828125 -17.027344 L 2.554688 -17.027344 C 2.285156 -17.027344 2.09375 -16.808594 2.09375 -16.566406 Z M 5.910156 -9.753906 L 5.910156 -13.550781 L 9.511719 -13.550781 C 10.507812 -13.550781 11.359375 -12.722656 11.359375 -11.703125 C 11.359375 -10.679688 10.507812 -9.753906 9.511719 -9.753906 Z M 5.910156 -9.753906 "/></g></g></g><g fill="#f4ebd9" fill-opacity="1"><g transform="translate(134.447031, 80.167663)"><g><path d="M 0.316406 0 L 2.992188 0 C 3.480469 0 3.746094 -0.292969 3.867188 -0.582031 L 4.742188 -2.53125 L 11.359375 -2.53125 L 12.238281 -0.609375 C 12.457031 -0.144531 12.648438 0 13.085938 0 L 15.789062 0 C 16.152344 0 16.347656 -0.316406 16.203125 -0.632812 L 8.585938 -17.003906 C 8.515625 -17.152344 8.34375 -17.273438 8.175781 -17.273438 L 7.929688 -17.273438 C 7.761719 -17.273438 7.589844 -17.152344 7.515625 -17.003906 L -0.0976562 -0.632812 C -0.242188 -0.316406 -0.046875 0 0.316406 0 Z M 6.203125 -5.839844 L 8.027344 -9.851562 L 8.050781 -9.851562 L 9.902344 -5.839844 Z M 6.203125 -5.839844 "/></g></g></g><g fill="#f4ebd9" fill-opacity="1"><g transform="translate(150.55055, 80.167663)"><g><path d="M 4.28125 -0.460938 C 4.28125 -0.21875 4.5 0 4.742188 0 L 7.664062 0 C 7.90625 0 8.125 -0.21875 8.125 -0.460938 L 8.125 -13.453125 L 11.605469 -13.453125 C 11.871094 -13.453125 12.066406 -13.671875 12.066406 -13.914062 L 12.066406 -16.566406 C 12.066406 -16.808594 11.871094 -17.027344 11.605469 -17.027344 L 0.804688 -17.027344 C 0.535156 -17.027344 0.339844 -16.808594 0.339844 -16.566406 L 0.339844 -13.914062 C 0.339844 -13.671875 0.535156 -13.453125 0.804688 -13.453125 L 4.28125 -13.453125 Z M 4.28125 -0.460938 "/></g></g></g><g fill="#f4ebd9" fill-opacity="1"><g transform="translate(162.956585, 80.167663)"><g><path d="M 2.09375 -0.460938 C 2.09375 -0.21875 2.3125 0 2.554688 0 L 5.472656 0 C 5.71875 0 5.9375 -0.21875 5.9375 -0.460938 L 5.9375 -16.566406 C 5.9375 -16.808594 5.71875 -17.027344 5.472656 -17.027344 L 2.554688 -17.027344 C 2.3125 -17.027344 2.09375 -16.808594 2.09375 -16.566406 Z M 2.09375 -0.460938 "/></g></g></g><g fill="#f4ebd9" fill-opacity="1"><g transform="translate(170.984013, 80.167663)"><g><path d="M 2.09375 -0.460938 C 2.09375 -0.21875 2.3125 0 2.554688 0 L 5.449219 0 C 5.71875 0 5.910156 -0.21875 5.910156 -0.460938 L 5.910156 -9.535156 C 5.910156 -9.535156 5.9375 -9.535156 5.9375 -9.535156 L 15.542969 0.121094 C 15.59375 0.171875 15.789062 0.242188 15.859375 0.242188 L 16.25 0.242188 C 16.492188 0.242188 16.710938 0.046875 16.710938 -0.195312 L 16.710938 -16.566406 C 16.710938 -16.808594 16.492188 -17.027344 16.25 -17.027344 L 13.332031 -17.027344 C 13.0625 -17.027344 12.867188 -16.808594 12.867188 -16.566406 L 12.867188 -7.929688 C 12.867188 -7.929688 12.84375 -7.929688 12.84375 -7.929688 L 3.136719 -17.273438 L 2.53125 -17.273438 C 2.285156 -17.273438 2.066406 -17.078125 2.066406 -16.835938 Z M 2.09375 -0.460938 "/></g></g></g><g fill="#f4ebd9" fill-opacity="1"><g transform="translate(189.787666, 80.167663)"><g><path d="M 0.875 -8.488281 C 0.875 -3.625 4.769531 0.21875 9.609375 0.21875 C 13.136719 0.21875 15.640625 -1.363281 15.640625 -1.363281 C 15.738281 -1.433594 15.835938 -1.628906 15.835938 -1.75 L 15.8125 -8.296875 C 15.8125 -8.539062 15.617188 -8.757812 15.375 -8.757812 L 10.484375 -8.757812 C 10.21875 -8.757812 10.023438 -8.5625 10.023438 -8.296875 L 10.023438 -5.886719 C 10.023438 -5.644531 10.21875 -5.449219 10.484375 -5.449219 L 12.015625 -5.449219 L 12.015625 -4.039062 C 11.289062 -3.746094 10.558594 -3.648438 9.851562 -3.648438 C 7.199219 -3.648438 5.035156 -5.839844 5.035156 -8.488281 C 5.035156 -11.167969 7.175781 -13.402344 9.828125 -13.402344 C 11.019531 -13.402344 12.089844 -13.085938 13.015625 -12.238281 C 13.210938 -12.089844 13.476562 -12.089844 13.671875 -12.261719 L 15.59375 -14.304688 C 15.789062 -14.5 15.765625 -14.789062 15.542969 -14.960938 C 13.890625 -16.394531 11.652344 -17.246094 9.609375 -17.246094 C 4.769531 -17.246094 0.875 -13.355469 0.875 -8.488281 Z M 0.875 -8.488281 "/></g></g></g></svg>