<svg xmlns="http://www.w3.org/2000/svg" xmlns:xlink="http://www.w3.org/1999/xlink" width="300" zoomAndPan="magnify" viewBox="0 0 224.87999 112.499997" height="150" preserveAspectRatio="xMidYMid meet" version="1.0"><defs><g/><clipPath id="id1"><path d="M 72.613281 25.941406 L 100 25.941406 L 100 51.328125 L 72.613281 51.328125 Z M 72.613281 25.941406 " clip-rule="nonzero"/></clipPath><clipPath id="id2"><path d="M 101 25.941406 L 128 25.941406 L 128 51.328125 L 101 51.328125 Z M 101 25.941406 " clip-rule="nonzero"/></clipPath><clipPath id="id3"><path d="M 129 25.941406 L 156 25.941406 L 156 51.328125 L 129 51.328125 Z M 129 25.941406 " clip-rule="nonzero"/></clipPath><clipPath id="id4"><path d="M 158 25.941406 L 185 25.941406 L 185 51.328125 L 158 51.328125 Z M 158 25.941406 " clip-rule="nonzero"/></clipPath><clipPath id="id5"><path d="M 186 25.941406 L 212.988281 25.941406 L 212.988281 51.328125 L 186 51.328125 Z M 186 25.941406 " clip-rule="nonzero"/></clipPath><clipPath id="id6"><path d="M 6.777344 38 L 28 38 L 28 75 L 6.777344 75 Z M 6.777344 38 " clip-rule="nonzero"/></clipPath><clipPath id="id7"><path d="M 65.765625 51.03125 L 37.3125 51.03125 L 37.3125 62.769531 L 53.6875 62.769531 C 52.164062 70.230469 45.777344 74.511719 37.3125 74.511719 C 27.316406 74.511719 19.269531 66.5 19.269531 56.554688 C 19.269531 46.609375 27.316406 38.597656 37.3125 38.597656 C 41.613281 38.597656 45.5 40.117188 48.554688 42.605469 L 57.4375 33.765625 C 52.023438 29.066406 45.082031 26.167969 37.3125 26.167969 C 20.378906 26.167969 6.777344 39.703125 6.777344 56.554688 C 6.777344 73.40625 20.378906 86.945312 37.3125 86.945312 C 52.578125 86.945312 66.457031 75.894531 66.457031 56.554688 C 66.457031 54.761719 66.179688 52.824219 65.765625 51.03125 Z M 65.765625 51.03125 " clip-rule="nonzero"/></clipPath><clipPath id="id8"><path d="M 6.777344 26 L 66.457031 26 L 66.457031 57 L 6.777344 57 Z M 6.777344 26 " clip-rule="nonzero"/></clipPath><clipPath id="id9"><path d="M 65.765625 51.03125 L 37.3125 51.03125 L 37.3125 62.769531 L 53.6875 62.769531 C 52.164062 70.230469 45.777344 74.511719 37.3125 74.511719 C 27.316406 74.511719 19.269531 66.5 19.269531 56.554688 C 19.269531 46.609375 27.316406 38.597656 37.3125 38.597656 C 41.613281 38.597656 45.5 40.117188 48.554688 42.605469 L 57.4375 33.765625 C 52.023438 29.066406 45.082031 26.167969 37.3125 26.167969 C 20.378906 26.167969 6.777344 39.703125 6.777344 56.554688 C 6.777344 73.40625 20.378906 86.945312 37.3125 86.945312 C 52.578125 86.945312 66.457031 75.894531 66.457031 56.554688 C 66.457031 54.761719 66.179688 52.824219 65.765625 51.03125 Z M 65.765625 51.03125 " clip-rule="nonzero"/></clipPath><clipPath id="id10"><path d="M 6.777344 26 L 66.457031 26 L 66.457031 86.945312 L 6.777344 86.945312 Z M 6.777344 26 " clip-rule="nonzero"/></clipPath><clipPath id="id11"><path d="M 65.765625 51.03125 L 37.3125 51.03125 L 37.3125 62.769531 L 53.6875 62.769531 C 52.164062 70.230469 45.777344 74.511719 37.3125 74.511719 C 27.316406 74.511719 19.269531 66.5 19.269531 56.554688 C 19.269531 46.609375 27.316406 38.597656 37.3125 38.597656 C 41.613281 38.597656 45.5 40.117188 48.554688 42.605469 L 57.4375 33.765625 C 52.023438 29.066406 45.082031 26.167969 37.3125 26.167969 C 20.378906 26.167969 6.777344 39.703125 6.777344 56.554688 C 6.777344 73.40625 20.378906 86.945312 37.3125 86.945312 C 52.578125 86.945312 66.457031 75.894531 66.457031 56.554688 C 66.457031 54.761719 66.179688 52.824219 65.765625 51.03125 Z M 65.765625 51.03125 " clip-rule="nonzero"/></clipPath><clipPath id="id12"><path d="M 22 38 L 66.457031 38 L 66.457031 86.945312 L 22 86.945312 Z M 22 38 " clip-rule="nonzero"/></clipPath><clipPath id="id13"><path d="M 65.765625 51.03125 L 37.3125 51.03125 L 37.3125 62.769531 L 53.6875 62.769531 C 52.164062 70.230469 45.777344 74.511719 37.3125 74.511719 C 27.316406 74.511719 19.269531 66.5 19.269531 56.554688 C 19.269531 46.609375 27.316406 38.597656 37.3125 38.597656 C 41.613281 38.597656 45.5 40.117188 48.554688 42.605469 L 57.4375 33.765625 C 52.023438 29.066406 45.082031 26.167969 37.3125 26.167969 C 20.378906 26.167969 6.777344 39.703125 6.777344 56.554688 C 6.777344 73.40625 20.378906 86.945312 37.3125 86.945312 C 52.578125 86.945312 66.457031 75.894531 66.457031 56.554688 C 66.457031 54.761719 66.179688 52.824219 65.765625 51.03125 Z M 65.765625 51.03125 " clip-rule="nonzero"/></clipPath></defs><g clip-path="url(#id1)"><path fill="#f4ebd9" d="M 85.984375 25.941406 L 89.097656 35.640625 L 99.175781 35.640625 L 91.023438 41.632812 L 94.136719 51.332031 L 85.984375 45.335938 L 77.832031 51.332031 L 80.949219 41.632812 L 72.796875 35.640625 L 82.871094 35.640625 L 85.984375 25.941406 " fill-opacity="1" fill-rule="nonzero"/></g><g clip-path="url(#id2)"><path fill="#f4ebd9" d="M 114.394531 25.941406 L 117.507812 35.640625 L 127.582031 35.640625 L 119.429688 41.632812 L 122.542969 51.332031 L 114.394531 45.335938 L 106.242188 51.332031 L 109.355469 41.632812 L 101.203125 35.640625 L 111.277344 35.640625 L 114.394531 25.941406 " fill-opacity="1" fill-rule="nonzero"/></g><g clip-path="url(#id3)"><path fill="#f4ebd9" d="M 142.800781 25.941406 L 145.914062 35.640625 L 155.992188 35.640625 L 147.839844 41.632812 L 150.953125 51.332031 L 142.800781 45.335938 L 134.648438 51.332031 L 137.761719 41.632812 L 129.609375 35.640625 L 139.6875 35.640625 L 142.800781 25.941406 " fill-opacity="1" fill-rule="nonzero"/></g><g clip-path="url(#id4)"><path fill="#f4ebd9" d="M 171.207031 25.941406 L 174.320312 35.640625 L 184.398438 35.640625 L 176.246094 41.632812 L 179.359375 51.332031 L 171.207031 45.335938 L 163.054688 51.332031 L 166.171875 41.632812 L 158.019531 35.640625 L 168.09375 35.640625 L 171.207031 25.941406 " fill-opacity="1" fill-rule="nonzero"/></g><g clip-path="url(#id5)"><path fill="#f4ebd9" d="M 199.613281 25.941406 L 202.730469 35.640625 L 212.804688 35.640625 L 204.652344 41.632812 L 207.765625 51.332031 L 199.613281 45.335938 L 191.460938 51.332031 L 194.578125 41.632812 L 186.425781 35.640625 L 196.503906 35.640625 L 199.613281 25.941406 " fill-opacity="1" fill-rule="nonzero"/></g><g clip-path="url(#id6)"><g clip-path="url(#id7)"><path fill="#fbbc05" d="M 4 74.511719 L 4 38.597656 L 27.59375 56.554688 Z M 4 74.511719 " fill-opacity="1" fill-rule="nonzero"/></g></g><g clip-path="url(#id8)"><g clip-path="url(#id9)"><path fill="#ea4335" d="M 4 38.597656 L 27.59375 56.554688 L 37.3125 48.128906 L 70.621094 42.742188 L 70.621094 23.40625 L 4 23.40625 Z M 4 38.597656 " fill-opacity="1" fill-rule="nonzero"/></g></g><g clip-path="url(#id10)"><g clip-path="url(#id11)"><path fill="#34a853" d="M 4 74.511719 L 45.640625 42.742188 L 56.605469 44.125 L 70.621094 23.40625 L 70.621094 89.707031 L 4 89.707031 Z M 4 74.511719 " fill-opacity="1" fill-rule="nonzero"/></g></g><g clip-path="url(#id12)"><g clip-path="url(#id13)"><path fill="#4285f4" d="M 70.621094 89.707031 L 27.59375 56.554688 L 22.042969 52.410156 L 70.621094 38.597656 Z M 70.621094 89.707031 " fill-opacity="1" fill-rule="nonzero"/></g></g><g fill="#f4ebd9" fill-opacity="1"><g transform="translate(79.052461, 78.843375)"><g><path d="M 0.804688 -3.429688 L 7.929688 -3.429688 L 7.929688 -0.460938 C 7.929688 -0.21875 8.148438 0 8.394531 0 L 10.996094 0 C 11.238281 0 11.457031 -0.21875 11.457031 -0.460938 L 11.433594 -3.453125 L 13.355469 -3.453125 C 13.625 -3.453125 13.816406 -3.671875 13.816406 -3.917969 L 13.816406 -5.9375 C 13.816406 -6.179688 13.625 -6.375 13.355469 -6.375 L 11.433594 -6.375 L 11.410156 -16.347656 C 11.410156 -16.617188 11.191406 -16.808594 10.945312 -16.808594 L 9.195312 -16.808594 C 8.976562 -16.808594 8.902344 -16.738281 8.832031 -16.664062 L 0.339844 -6.472656 L 0.339844 -3.890625 C 0.339844 -3.648438 0.535156 -3.429688 0.804688 -3.429688 Z M 4.160156 -6.445312 L 8.027344 -10.972656 L 8.027344 -6.445312 Z M 4.160156 -6.445312 "/></g></g></g><g fill="#f4ebd9" fill-opacity="1"><g transform="translate(93.647793, 78.843375)"><g><path d="M 0.65625 -2.042969 C 0.65625 -0.804688 1.703125 0.242188 2.945312 0.242188 C 4.207031 0.242188 5.277344 -0.804688 5.277344 -2.042969 C 5.277344 -3.308594 4.207031 -4.378906 2.945312 -4.378906 C 1.703125 -4.378906 0.65625 -3.308594 0.65625 -2.042969 Z M 0.65625 -2.042969 "/></g></g></g><g fill="#f4ebd9" fill-opacity="1"><g transform="translate(99.583224, 78.843375)"><g><path d="M 2.53125 -1.875 L 3.234375 0 C 3.355469 0.339844 3.625 0.488281 3.988281 0.390625 C 6.226562 -0.269531 12.164062 -3.164062 12.164062 -10.316406 C 12.164062 -14.109375 10.070312 -16.929688 6.300781 -16.929688 C 3.261719 -16.929688 0.730469 -14.425781 0.730469 -11.359375 C 0.730469 -7.761719 3.285156 -6.082031 5.570312 -6.082031 C 6.226562 -6.082031 7.25 -6.300781 7.882812 -6.566406 C 7.371094 -4.0625 4.136719 -2.945312 2.992188 -2.578125 C 2.503906 -2.433594 2.433594 -2.164062 2.53125 -1.875 Z M 6.347656 -8.878906 C 5.058594 -8.878906 4.015625 -9.949219 4.015625 -11.238281 C 4.015625 -12.503906 5.058594 -13.574219 6.347656 -13.574219 C 7.636719 -13.574219 8.683594 -12.503906 8.683594 -11.238281 C 8.683594 -9.949219 7.636719 -8.878906 6.347656 -8.878906 Z M 6.347656 -8.878906 "/></g></g></g><g fill="#f4ebd9" fill-opacity="1"><g transform="translate(112.646047, 78.843375)"><g/></g></g><g fill="#f4ebd9" fill-opacity="1"><g transform="translate(118.021991, 78.843375)"><g><path d="M 2.09375 -0.460938 C 2.09375 -0.21875 2.285156 0 2.554688 0 L 5.449219 0 C 5.691406 0 5.910156 -0.21875 5.910156 -0.460938 L 5.910156 -6.664062 L 7.589844 -6.664062 L 10.824219 -0.21875 C 10.875 -0.121094 11.019531 0 11.214844 0 L 14.449219 0 C 14.863281 0 15.035156 -0.390625 14.863281 -0.707031 L 11.53125 -6.882812 C 13.648438 -7.734375 15.132812 -9.535156 15.132812 -11.773438 C 15.132812 -14.667969 12.746094 -17.027344 9.828125 -17.027344 L 2.554688 -17.027344 C 2.285156 -17.027344 2.09375 -16.808594 2.09375 -16.566406 Z M 5.910156 -9.753906 L 5.910156 -13.550781 L 9.511719 -13.550781 C 10.507812 -13.550781 11.359375 -12.722656 11.359375 -11.703125 C 11.359375 -10.679688 10.507812 -9.753906 9.511719 -9.753906 Z M 5.910156 -9.753906 "/></g></g></g><g fill="#f4ebd9" fill-opacity="1"><g transform="translate(134.320109, 78.843375)"><g><path d="M 0.316406 0 L 2.992188 0 C 3.480469 0 3.746094 -0.292969 3.867188 -0.582031 L 4.742188 -2.53125 L 11.359375 -2.53125 L 12.238281 -0.609375 C 12.457031 -0.144531 12.648438 0 13.085938 0 L 15.789062 0 C 16.152344 0 16.347656 -0.316406 16.203125 -0.632812 L 8.585938 -17.003906 C 8.515625 -17.152344 8.34375 -17.273438 8.175781 -17.273438 L 7.929688 -17.273438 C 7.761719 -17.273438 7.589844 -17.152344 7.515625 -17.003906 L -0.0976562 -0.632812 C -0.242188 -0.316406 -0.046875 0 0.316406 0 Z M 6.203125 -5.839844 L 8.027344 -9.851562 L 8.050781 -9.851562 L 9.902344 -5.839844 Z M 6.203125 -5.839844 "/></g></g></g><g fill="#f4ebd9" fill-opacity="1"><g transform="translate(150.423628, 78.843375)"><g><path d="M 4.28125 -0.460938 C 4.28125 -0.21875 4.5 0 4.742188 0 L 7.664062 0 C 7.90625 0 8.125 -0.21875 8.125 -0.460938 L 8.125 -13.453125 L 11.605469 -13.453125 C 11.871094 -13.453125 12.066406 -13.671875 12.066406 -13.914062 L 12.066406 -16.566406 C 12.066406 -16.808594 11.871094 -17.027344 11.605469 -17.027344 L 0.804688 -17.027344 C 0.535156 -17.027344 0.339844 -16.808594 0.339844 -16.566406 L 0.339844 -13.914062 C 0.339844 -13.671875 0.535156 -13.453125 0.804688 -13.453125 L 4.28125 -13.453125 Z M 4.28125 -0.460938 "/></g></g></g><g fill="#f4ebd9" fill-opacity="1"><g transform="translate(162.829663, 78.843375)"><g><path d="M 2.09375 -0.460938 C 2.09375 -0.21875 2.3125 0 2.554688 0 L 5.472656 0 C 5.71875 0 5.9375 -0.21875 5.9375 -0.460938 L 5.9375 -16.566406 C 5.9375 -16.808594 5.71875 -17.027344 5.472656 -17.027344 L 2.554688 -17.027344 C 2.3125 -17.027344 2.09375 -16.808594 2.09375 -16.566406 Z M 2.09375 -0.460938 "/></g></g></g><g fill="#f4ebd9" fill-opacity="1"><g transform="translate(170.857092, 78.843375)"><g><path d="M 2.09375 -0.460938 C 2.09375 -0.21875 2.3125 0 2.554688 0 L 5.449219 0 C 5.71875 0 5.910156 -0.21875 5.910156 -0.460938 L 5.910156 -9.535156 C 5.910156 -9.535156 5.9375 -9.535156 5.9375 -9.535156 L 15.542969 0.121094 C 15.59375 0.171875 15.789062 0.242188 15.859375 0.242188 L 16.25 0.242188 C 16.492188 0.242188 16.710938 0.046875 16.710938 -0.195312 L 16.710938 -16.566406 C 16.710938 -16.808594 16.492188 -17.027344 16.25 -17.027344 L 13.332031 -17.027344 C 13.0625 -17.027344 12.867188 -16.808594 12.867188 -16.566406 L 12.867188 -7.929688 C 12.867188 -7.929688 12.84375 -7.929688 12.84375 -7.929688 L 3.136719 -17.273438 L 2.53125 -17.273438 C 2.285156 -17.273438 2.066406 -17.078125 2.066406 -16.835938 Z M 2.09375 -0.460938 "/></g></g></g><g fill="#f4ebd9" fill-opacity="1"><g transform="translate(189.660745, 78.843375)"><g><path d="M 0.875 -8.488281 C 0.875 -3.625 4.769531 0.21875 9.609375 0.21875 C 13.136719 0.21875 15.640625 -1.363281 15.640625 -1.363281 C 15.738281 -1.433594 15.835938 -1.628906 15.835938 -1.75 L 15.8125 -8.296875 C 15.8125 -8.539062 15.617188 -8.757812 15.375 -8.757812 L 10.484375 -8.757812 C 10.21875 -8.757812 10.023438 -8.5625 10.023438 -8.296875 L 10.023438 -5.886719 C 10.023438 -5.644531 10.21875 -5.449219 10.484375 -5.449219 L 12.015625 -5.449219 L 12.015625 -4.039062 C 11.289062 -3.746094 10.558594 -3.648438 9.851562 -3.648438 C 7.199219 -3.648438 5.035156 -5.839844 5.035156 -8.488281 C 5.035156 -11.167969 7.175781 -13.402344 9.828125 -13.402344 C 11.019531 -13.402344 12.089844 -13.085938 13.015625 -12.238281 C 13.210938 -12.089844 13.476562 -12.089844 13.671875 -12.261719 L 15.59375 -14.304688 C 15.789062 -14.5 15.765625 -14.789062 15.542969 -14.960938 C 13.890625 -16.394531 11.652344 -17.246094 9.609375 -17.246094 C 4.769531 -17.246094 0.875 -13.355469 0.875 -8.488281 Z M 0.875 -8.488281 "/></g></g></g></svg>